# 3ds Max Wavefront OBJ Exporter v0.97b - (c)2007 guruware
# File Created: 27.01.2018 17:35:19

mtllib Escenario.mtl

#
# object Box001
#

#
# object Box002
#

v  -134.5489 0.0000 146.6290
v  180.4117 0.0000 146.6290
v  180.4117 0.0000 -168.3316
v  -134.5489 0.0000 -168.3316
v  -134.5489 98.4252 146.6290
v  180.4117 98.4252 146.6290
v  180.4117 98.4252 -168.3316
v  -134.5489 98.4252 -168.3316
# 8 vertices

vn 0.0000 1.0000 -0.0000
vn 0.0000 0.0000 -1.0000
vn -1.0000 0.0000 -0.0000
vn 0.0000 0.0000 1.0000
vn 1.0000 0.0000 -0.0000
# 5 vertex normals

vt 0.4328 0.9725 0.0000
vt 0.4328 0.5671 0.0000
vt 0.0265 0.5671 0.0000
vt 0.0265 0.9725 0.0000
vt 0.6035 0.2147 0.0000
vt 0.6035 0.3897 0.0000
vt 0.0442 0.3897 0.0000
vt 0.0442 0.2148 0.0000
vt 0.6093 0.0166 0.0000
vt 0.6093 0.1924 0.0000
vt 0.0431 0.1924 0.0000
vt 0.0431 0.0166 0.0000
vt 0.9746 0.6489 0.0000
vt 0.9746 0.8086 0.0000
vt 0.4601 0.8086 0.0000
vt 0.4601 0.6489 0.0000
vt 0.9805 0.4541 0.0000
vt 0.9805 0.6109 0.0000
vt 0.4761 0.6115 0.0000
vt 0.4761 0.4539 0.0000
# 20 texture coords

g Box002
usemtl 09___Default
s 2
f 1/1/1 2/2/1 3/3/1 4/4/1 
s 8
f 1/5/2 5/6/2 6/7/2 2/8/2 
s 16
f 2/9/3 6/10/3 7/11/3 3/12/3 
s 32
f 3/13/4 7/14/4 8/15/4 4/16/4 
s 64
f 4/17/5 8/18/5 5/19/5 1/20/5 
# 5 polygons

